<svg id="Calque_1" data-name="Calque 1" xmlns="http://www.w3.org/2000/svg" viewBox="0 0 155.23 155.23"><title>Plan de travail 67 copie</title><path d="M82.86,90.57a7.4,7.4,0,0,1-2.28,5.5,7.84,7.84,0,0,1-11,0,7.39,7.39,0,0,1-2.28-5.5A7.64,7.64,0,0,1,69.57,85a7.4,7.4,0,0,1,5.5-2.28,7.7,7.7,0,0,1,7.78,7.83ZM81.67,35.15q0,1.54-.1,2.78t-.4,3.92L77.31,74.31H72.85L69,41.84a63.87,63.87,0,0,1-.5-6.69q0-3.77,2-5.55A6.56,6.56,0,0,1,75,27.81a6.68,6.68,0,0,1,4.78,1.81Q81.67,31.43,81.67,35.15Z"/><path d="M71.66,154.72v-24.6c-2.11-.14-4.28-.29-6.43-.58-21.55-2.86-38.61-12.21-50.68-27.8C-4,77.78-1.92,45.87,19.66,24.14,32,11.72,47.52,4.38,65.83,2.29,85.28.08,103.13,4,118.91,14s25.46,23.25,29,39.66c4.41,20.26-1.06,38.36-16.26,53.8a112,112,0,0,1-12.41,10.39c-1.46,1.11-2.92,2.21-4.35,3.34-8.42,6.62-17,13.32-25.31,19.79L80,148.44l-1.22.92ZM76.16,9.5a83.45,83.45,0,0,0-9.44.55c-16.5,1.88-30.47,8.47-41.51,19.59C6.47,48.5,4.63,76.19,20.72,97c10.93,14.1,25.82,22.23,45.54,24.84,2.05.27,4.15.41,6.37.56l3.25.23,3.6.29V139l5.34-4.16c8.3-6.47,16.88-13.16,25.28-19.77,1.47-1.16,3-2.29,4.46-3.43a104.62,104.62,0,0,0,11.56-9.65c13.23-13.44,18-29.14,14.19-46.66-3.11-14.28-11.71-26-25.57-34.72A71,71,0,0,0,76.16,9.5Z"/></svg>