<?xml version="1.0" encoding="UTF-8"?>
<svg width="37px" height="36px" viewBox="0 0 37 36" version="1.1" xmlns="http://www.w3.org/2000/svg" xmlns:xlink="http://www.w3.org/1999/xlink">
    <!-- Generator: Sketch 44.1 (41455) - http://www.bohemiancoding.com/sketch -->
    <title>Group</title>
    <desc>Created with Sketch.</desc>
    <defs></defs>
    <g id="Iconification" stroke="none" stroke-width="1" fill="none" fill-rule="evenodd">
        <g id="Iconification-admin" transform="translate(-397.000000, -458.000000)" fill="#06144D">
            <g id="Group" transform="translate(397.000000, 457.000000)">
                <path d="M18.9790064,18.9789115 L23.4787374,18.9789115 L23.4787374,14.4789578 L18.9790064,14.4789578 L18.9790064,18.9789115 Z M3.22905736,27.7549748 L3.22905736,12.2288697 L27.9789136,12.2288697 L27.9789136,16.7289717 L30.2290017,16.7289717 L30.2290017,7.95320523 C30.2290017,6.5864735 29.1389402,5.47890219 27.792241,5.47890219 L26.8539067,5.47890219 L26.8539067,6.60413173 C26.8539067,7.84324939 25.845162,8.85407144 24.6041895,8.85407144 C23.362846,8.85407144 22.3541756,7.84324939 22.3541756,6.60413173 L22.3541756,5.47890219 L8.85386956,5.47890219 L8.85386956,6.60413173 C8.85386956,7.84324939 7.84534753,8.85407144 6.60415242,8.85407144 C5.36266054,8.85407144 4.35406432,7.84324939 4.35406432,6.60413173 L4.35406432,5.47890219 L3.41684293,5.47890219 C2.07006945,5.47890219 0.978969256,6.5864735 0.978969256,7.95320523 L0.978969256,27.755049 C0.978969256,29.1172548 2.07006945,30.2291294 3.41684293,30.2291294 L16.7290666,30.2291294 L16.7290666,27.9787445 L3.41684293,27.9787445 C3.31490007,27.9786703 3.22905736,27.8733887 3.22905736,27.7549748 L3.22905736,27.7549748 Z M12.2288904,25.7289532 L16.7290666,25.7289532 L16.7290666,21.228777 L12.2288904,21.228777 L12.2288904,25.7289532 Z M12.2288904,18.9789115 L16.7290666,18.9789115 L16.7290666,14.4789578 L12.2288904,14.4789578 L12.2288904,18.9789115 Z M5.47892288,25.7289532 L9.9790249,25.7289532 L9.9790249,21.228777 L5.47892288,21.228777 L5.47892288,25.7289532 Z M5.47892288,18.9789115 L9.9790249,18.9789115 L9.9790249,14.4789578 L5.47892288,14.4789578 L5.47892288,18.9789115 Z M34.7291037,27.9786703 C34.7291037,24.2570141 31.7012376,21.228777 27.9789136,21.228777 C24.2568864,21.228777 21.2290203,24.2569399 21.2290203,27.9786703 C21.2290203,31.7010685 24.2568864,34.7288605 27.9789136,34.7288605 C31.7012376,34.7288605 34.7291037,31.7010685 34.7291037,27.9786703 L34.7291037,27.9786703 Z M36.9788209,27.9786703 C36.9788209,32.9493863 32.9491844,36.9789486 27.9788394,36.9789486 C23.0088654,36.9789486 18.9789322,32.9493863 18.9789322,27.9786703 C18.9789322,23.0086963 23.0087912,18.9789115 27.9788394,18.9789115 C32.9491844,18.9789115 36.9788209,23.0086221 36.9788209,27.9786703 L36.9788209,27.9786703 Z M24.6041153,7.72899029 C25.2257145,7.72899029 25.7291223,7.22587929 25.7291223,6.60413173 L25.7291223,2.10395552 C25.7291223,1.48205956 25.2257145,0.97894856 24.6041153,0.97894856 C23.9822194,0.97894856 23.4787374,1.48205956 23.4787374,2.10395552 L23.4787374,6.60405753 C23.4787374,7.22580509 23.9822194,7.72899029 24.6041153,7.72899029 L24.6041153,7.72899029 Z M5.47892288,6.60405753 L5.47892288,2.10395552 C5.47892288,1.48205956 5.98203389,0.97894856 6.60407823,0.97894856 C7.22582579,0.97894856 7.7289368,1.48205956 7.7289368,2.10395552 L7.7289368,6.60405753 C7.7289368,7.22580509 7.22582579,7.7289161 6.60407823,7.7289161 C5.98203389,7.72899029 5.47892288,7.22580509 5.47892288,6.60405753 L5.47892288,6.60405753 Z" id="Fill-1"></path>
                <path d="M26.5483324,31.9007609 C26.2922881,31.9007609 26.0361697,31.8031955 25.8406679,31.6079905 L23.462669,29.2337754 C23.0712203,28.8428461 23.0707009,28.2087081 23.461556,27.8172594 C23.8524112,27.4258107 24.4865492,27.4253655 24.8779979,27.8160723 L26.5477388,29.4832164 L31.1820582,24.848897 C31.5732101,24.4578193 32.2074223,24.4578193 32.5985742,24.848897 C32.9897262,25.2401232 32.9897262,25.874187 32.5985742,26.2654131 L27.2565904,31.6073969 C27.0610144,31.8029729 26.8046734,31.9007609 26.5483324,31.9007609" id="Fill-3"></path>
            </g>
        </g>
    </g>
</svg>