<?xml version="1.0" encoding="UTF-8"?>
<svg width="37px" height="38px" viewBox="0 0 37 38" version="1.1" xmlns="http://www.w3.org/2000/svg" xmlns:xlink="http://www.w3.org/1999/xlink">
    <!-- Generator: Sketch 44.1 (41455) - http://www.bohemiancoding.com/sketch -->
    <title>Fill 1</title>
    <desc>Created with Sketch.</desc>
    <defs></defs>
    <g id="Iconification" stroke="none" stroke-width="1" fill="none" fill-rule="evenodd">
        <g id="Iconification-admin" transform="translate(-150.000000, -456.000000)" fill="#06144D">
            <path d="M169.486238,467.619742 L169.486238,477.752705 L179.594632,477.752705 C179.594757,471.581802 174.877102,467.619742 169.486238,467.619742 M186.444844,463.653708 L183.296967,460.766142 C182.873584,460.377759 182.213139,460.403527 181.821664,460.823701 L180.989037,461.717756 C180.597625,462.13793 180.62359,462.79343 181.046973,463.181874 L184.19485,466.069379 C184.618234,466.457699 185.278742,466.431993 185.670154,466.01182 L186.50278,465.117764 C186.894192,464.697591 186.868228,464.04209 186.444844,463.653708 M185.90415,479.333556 C185.133589,487.032966 178.847345,493.221318 171.083483,493.929285 C161.905882,494.766217 154.079954,488.069646 153.172186,479.365781 L151.55467,479.365781 C150.571385,479.365781 149.956738,478.309232 150.448568,477.464104 L154.066002,471.247439 C154.557707,470.402435 155.786751,470.402497 156.278331,471.247501 L159.89514,477.464228 C160.386782,478.309356 159.772198,479.365781 158.78885,479.365781 L157.380805,479.365781 C158.29558,485.864218 164.391749,490.737967 171.381296,489.721281 C176.553429,488.96898 180.748784,484.919371 181.627897,479.805389 C182.94372,472.151367 177.008659,465.489754 169.535728,465.489754 C167.112301,465.489754 164.773276,466.187539 162.764035,467.508908 C161.831554,468.122124 160.538943,468.000797 159.854847,467.122513 C159.11,466.166179 159.342558,464.800973 160.335791,464.135352 C162.491498,462.69011 164.935322,461.786926 167.495705,461.472433 L167.495705,459.115997 L165.819878,459.115997 C165.243396,459.115997 164.775966,458.652174 164.775966,458.079938 L164.775966,457.036056 C164.775966,456.46382 165.243333,455.999997 165.819878,455.999997 L173.591248,455.999997 C174.167793,455.999997 174.635285,456.46382 174.635285,457.036056 L174.635285,458.079938 C174.635285,458.652112 174.167918,459.115997 173.591248,459.115997 L171.74543,459.115997 L171.74543,461.497021 C180.307757,462.643541 186.803409,470.346988 185.90415,479.333556" id="Fill-1"></path>
        </g>
    </g>
</svg>