<?xml version="1.0" encoding="UTF-8"?>
<svg width="37px" height="37px" viewBox="0 0 37 37" version="1.1" xmlns="http://www.w3.org/2000/svg" xmlns:xlink="http://www.w3.org/1999/xlink">
    <!-- Generator: Sketch 44.1 (41455) - http://www.bohemiancoding.com/sketch -->
    <title>Fill 1</title>
    <desc>Created with Sketch.</desc>
    <defs></defs>
    <g id="Iconification" stroke="none" stroke-width="1" fill="none" fill-rule="evenodd">
        <g id="Iconification-admin" transform="translate(-285.000000, -458.000000)" fill="#06144D">
            <path d="M315.854746,485.47948 L312.479651,485.47948 L312.479651,482.104385 C312.479651,481.48286 311.97654,480.979749 311.354644,480.979749 C310.732748,480.979749 310.22986,481.48286 310.22986,482.104385 L310.22986,486.604858 C310.22986,487.226457 310.732748,487.729865 311.354644,487.729865 L315.854746,487.729865 C316.476642,487.729865 316.979679,487.226457 316.979679,486.604858 C316.979753,485.982962 316.476642,485.47948 315.854746,485.47948 L315.854746,485.47948 Z M303.479744,476.479721 L307.979475,476.479721 L307.979475,471.979768 L303.479744,471.979768 L303.479744,476.479721 Z M287.729869,485.25571 L287.729869,469.729679 L312.479725,469.729679 L312.479725,474.229781 L314.729813,474.229781 L314.729813,465.454015 C314.729813,464.087283 313.639752,462.979712 312.292978,462.979712 L311.354718,462.979712 L311.354718,464.104941 C311.354718,465.344059 310.345974,466.354881 309.104927,466.354881 C307.863658,466.354881 306.854913,465.344059 306.854913,464.104941 L306.854913,462.979712 L293.354681,462.979712 L293.354681,464.104941 C293.354681,465.344059 292.346085,466.354881 291.10489,466.354881 C289.863472,466.354881 288.854876,465.344059 288.854876,464.104941 L288.854876,462.979712 L287.91758,462.979712 C286.570881,462.979712 285.479781,464.087283 285.479781,465.454015 L285.479781,485.255784 C285.479781,486.618065 286.570881,487.729939 287.91758,487.729939 L301.229878,487.729939 L301.229878,485.479554 L287.91758,485.479554 C287.815638,485.47948 287.729869,485.374198 287.729869,485.25571 L287.729869,485.25571 Z M296.729628,483.229763 L301.229804,483.229763 L301.229804,478.729587 L296.729628,478.729587 L296.729628,483.229763 Z M296.729628,476.479721 L301.229804,476.479721 L301.229804,471.979768 L296.729628,471.979768 L296.729628,476.479721 Z M289.97966,483.229763 L294.479762,483.229763 L294.479762,478.729587 L289.97966,478.729587 L289.97966,483.229763 Z M289.979735,476.479721 L294.479837,476.479721 L294.479837,471.979768 L289.979735,471.979768 L289.979735,476.479721 Z M319.229841,485.47948 C319.229841,481.757824 316.202049,478.729512 312.479725,478.729512 C308.757698,478.729512 305.729758,481.75775 305.729758,485.47948 C305.729758,489.201878 308.757698,492.229596 312.479725,492.229596 C316.202049,492.229596 319.229841,489.201878 319.229841,485.47948 L319.229841,485.47948 Z M321.479633,485.47948 C321.479633,490.450196 317.449996,494.479758 312.479651,494.479758 C307.509603,494.479758 303.479744,490.450196 303.479744,485.47948 C303.479744,480.509506 307.509529,476.479721 312.479651,476.479721 C317.449996,476.479721 321.479633,480.509432 321.479633,485.47948 L321.479633,485.47948 Z M309.104853,465.2298 C309.726452,465.2298 310.22986,464.726689 310.22986,464.104941 L310.22986,459.604765 C310.22986,458.982869 309.726452,458.479758 309.104853,458.479758 C308.483031,458.479758 307.979475,458.982869 307.979475,459.604765 L307.979475,464.104867 C307.979475,464.726615 308.483031,465.2298 309.104853,465.2298 L309.104853,465.2298 Z M289.97966,464.104867 L289.97966,459.604765 C289.97966,458.982869 290.482846,458.479758 291.104816,458.479758 C291.726563,458.479758 292.229749,458.982869 292.229749,459.604765 L292.229749,464.104867 C292.229749,464.726615 291.726563,465.229726 291.104816,465.229726 C290.482846,465.2298 289.97966,464.726615 289.97966,464.104867 L289.97966,464.104867 Z" id="Fill-1"></path>
        </g>
    </g>
</svg>