<svg id="Calque_1" data-name="Calque 1" xmlns="http://www.w3.org/2000/svg" viewBox="0 0 155.23 155.23"><title>Plan de travail 67</title><path d="M118.25,37.13H37.17v16h81.08Zm0,32.46H37.12V85.52h81.11ZM37.1,118.07H85.68v-16H37.1Z"/><path d="M77.61,155.23l-48.41,0A28.91,28.91,0,0,1,0,126Q0,77.61,0,29.2A28.92,28.92,0,0,1,29.21,0H92.38q16.91,0,33.81,0a28.86,28.86,0,0,1,28.43,23.12,29.8,29.8,0,0,1,.59,6.08c0,33.4,0,66,0,96.81A28.91,28.91,0,0,1,126,155.22ZM48,9H29.22A19.78,19.78,0,0,0,9,29.21Q9,77.61,9,126a19.77,19.77,0,0,0,20.2,20.21q48.4,0,96.8,0A19.78,19.78,0,0,0,146.22,126c0-30.83,0-63.4,0-96.8a20.89,20.89,0,0,0-.39-4.24A19.69,19.69,0,0,0,126.18,9q-16.9,0-33.8,0H48Z"/></svg>