<svg id="Calque_1" data-name="Calque 1" xmlns="http://www.w3.org/2000/svg" viewBox="0 0 171.9 171.9"><title>Plan de travail 21</title><path d="M92.61,80h2.58c6.48,0,13,0,19.44,0,4,0,6.44,2.51,6.48,6.38S118.68,93,114.67,93q-14.19.1-28.39,0c-4.09,0-6.77-2.84-6.78-7q0-24.68,0-49.36c0-4.14,2.45-6.62,6.43-6.65s6.66,2.49,6.67,6.68c0,13.47,0,26.94,0,40.4C92.61,78,92.61,78.87,92.61,80Z"/><path d="M85.95,171.9a85.95,85.95,0,1,1,86-85.95A86,86,0,0,1,85.95,171.9Zm0-161.9a75.95,75.95,0,1,0,76,75.95A76,76,0,0,0,85.95,10Z"/></svg>