<svg id="Calque_1" data-name="Calque 1" xmlns="http://www.w3.org/2000/svg" viewBox="0 0 141.27 141.27"><title>Plan de travail 71</title><path d="M80.57,105a9.47,9.47,0,0,1-2.92,7,10,10,0,0,1-14,0,9.47,9.47,0,0,1-2.92-7,9.79,9.79,0,0,1,2.86-7.11,9.47,9.47,0,0,1,7-2.92,9.86,9.86,0,0,1,10,10ZM79,34.06q0,2-.13,3.55t-.51,5l-5,41.58H67.74l-5-41.58a81.78,81.78,0,0,1-.63-8.57q0-4.82,2.54-7.11a8.4,8.4,0,0,1,5.78-2.29A8.55,8.55,0,0,1,76.6,27Q79,29.3,79,34.06Z"/><path d="M70.63,141.27a70.63,70.63,0,1,1,70.63-70.63A70.71,70.71,0,0,1,70.63,141.27ZM70.63,9a61.63,61.63,0,1,0,61.63,61.63A61.7,61.7,0,0,0,70.63,9Z"/></svg>