<svg id="Calque_1" data-name="Calque 1" xmlns="http://www.w3.org/2000/svg" viewBox="0 0 173.16 159.18"><defs><style>.cls-1{stroke:#000;stroke-miterlimit:10;}</style></defs><title>Plan de travail 69</title><path d="M55.6,40.46a14.2,14.2,0,0,1-9.2-3c-2.65-2.11-5.45-4.17-8.17-6.16l-3.77-2.79A8.09,8.09,0,0,1,30.92,22a8.07,8.07,0,0,1,3.54-6.45l3.85-2.85C41.11,10.61,44,8.47,46.78,6.3a12.6,12.6,0,0,1,8.08-2.71h7.56q49.05,0,98.11.09c6.78,0,11.54,4.8,11.57,11.66q0,6.71,0,13.42c0,6.86-4.85,11.66-11.72,11.66H111.59l-3.95,0H94.83q-19.58,0-39.18,0ZM39.19,22l.07.05L43,24.8c2.77,2,5.64,4.15,8.4,6.34a6.19,6.19,0,0,0,4.22,1.31h0q19.6,0,39.2,0h65.56c2.49,0,3.71-1.21,3.72-3.7q0-6.67,0-13.34c0-2.48-1.18-3.69-3.58-3.69q-49.05-.07-98.11-.09H54.87a4.71,4.71,0,0,0-3.15,1c-2.86,2.24-5.81,4.42-8.66,6.53l-3.81,2.83Z"/><path d="M58.8,155.6c-6.48,0-11.23-1.65-15.38-5.33a70.84,70.84,0,0,0-5.89-4.51c-1.07-.77-2.15-1.54-3.2-2.33a7.62,7.62,0,0,1,0-12.72l1.83-1.37c3.84-2.88,7.81-5.87,11.79-8.73a10.8,10.8,0,0,1,5-1.77,26.94,26.94,0,0,1,3.78-.1,12.3,12.3,0,0,0,1.23,0H160.08c7.3,0,12,4.7,12,12q0,6.39,0,12.79c0,7.28-4.73,12-12,12H133.59c-24.44,0-49.72,0-74.58.11ZM39.19,137.07c1,.74,2,1.46,3,2.18a78,78,0,0,1,6.55,5c2.65,2.35,5.57,3.32,10.06,3.32H59c24.88-.13,50.17-.12,74.63-.11h26.49c2.93,0,4-1.08,4-4q0-6.38,0-12.76c0-2.9-1.1-4-4-4H57.92l-1.42,0a20,20,0,0,0-2.67,0,3.39,3.39,0,0,0-1.23.32c-3.91,2.81-7.84,5.77-11.65,8.63Zm-.34.31Z"/><path d="M58.22,98c-6,0-10.39-1.52-14.3-4.93-1.92-1.68-4-3.19-6.26-4.78-1.08-.77-2.16-1.54-3.22-2.34a7.65,7.65,0,0,1,0-12.91L39,69.67c2.9-2.16,5.81-4.32,8.69-6.5a11.33,11.33,0,0,1,7.33-2q20.56,0,41.11,0H111.5v.08H122c12.43,0,25.28,0,37.91-.07a12.38,12.38,0,0,1,9,3.55,11.81,11.81,0,0,1,3.23,8.8c-.1,2.72-.08,5.53-.05,8.26,0,1.3,0,2.6,0,3.91,0,7.68-4.56,12.26-12.2,12.26H134.69c-25,0-50.88,0-76.31.09Zm-19-18.5.06,0c1,.76,2,1.5,3.08,2.24,2.28,1.64,4.65,3.33,6.86,5.26,2.4,2.1,5,3,9,3h.13c25.45-.12,51.33-.1,76.35-.09h25.22c3.22,0,4.2-1,4.2-4.27,0-1.28,0-2.55,0-3.83,0-2.82-.05-5.73.06-8.64a3.85,3.85,0,0,0-1-2.92A4.24,4.24,0,0,0,160,69.18H160c-12.67.11-25.54.09-38,.07H103.5v-.08H96.15q-20.55,0-41.1,0a4.52,4.52,0,0,0-2.5.37c-2.9,2.2-5.83,4.38-8.75,6.55l-4.54,3.38Z"/><path class="cls-1" d="M10.63,32.27c-.36-.18-.73-.34-1.09-.53a10.42,10.42,0,0,1-6-9.65,10.25,10.25,0,0,1,6-9.66,1.79,1.79,0,0,0,1.22-1.93c-.09-2.07,0-4.15,0-6.23a3.58,3.58,0,1,1,7.15-.12c.07,2.13.06,4.26,0,6.38A1.74,1.74,0,0,0,19,12.4,10.25,10.25,0,0,1,25,22a10.29,10.29,0,0,1-6.1,9.73,1.65,1.65,0,0,0-1.06,1.73q0,17.33,0,34.66A1.77,1.77,0,0,0,19,70a10.75,10.75,0,0,1,0,19.28,1.76,1.76,0,0,0-1.15,1.83q0,17.33,0,34.66a1.66,1.66,0,0,0,1.08,1.72,10.74,10.74,0,0,1,0,19.35,1.73,1.73,0,0,0-1.11,1.86c.06,2,0,4,0,5.93,0,2.57-1.46,4.14-3.67,4.1s-3.49-1.59-3.5-4.09c0-2.08,0-4.16,0-6.23a1.85,1.85,0,0,0-.8-1.36c-4.14-2.1-6.43-5.45-6.35-10.08s2.5-7.9,6.72-9.81c.14-.06.26-.15.46-.27,0-3.71,0-7.46,0-11.21,0-8.16,0-16.32,0-24.48a1.81,1.81,0,0,0-1.19-1.93,10.24,10.24,0,0,1-6-9.63,10.36,10.36,0,0,1,6-9.66c.71-.37,1.21-.62,1.21-1.61,0-11.81,0-23.61,0-35.42C10.68,32.7,10.65,32.5,10.63,32.27Z"/></svg>