<svg id="Calque_1" data-name="Calque 1" xmlns="http://www.w3.org/2000/svg" viewBox="0 0 235.19 202.07"><title>Plan de travail 23</title><path d="M235,137.9c-1-21.29-5.31-40.23-13.19-57.89-3.92-8.79-9.53-20.1-18.11-29.56-12.74-14.06-28.37-19.9-46.44-17.33a72,72,0,0,0-30.77,12.41,12.54,12.54,0,0,1-5.21,1.22c15.38-12.55,3.75-34.52.38-40.14a2.76,2.76,0,0,0-2.37-1.34h-3a2.36,2.36,0,0,0-2,3.67,40.1,40.1,0,0,1,5.32,12.49c4.18,15.68-4.48,22.3-9.25,24.68a7.23,7.23,0,0,1-1.82-.69,112,112,0,0,0-17.21-8.84C76.76,31,62.86,31.06,50,36.81,39.77,41.38,31.25,49.13,24,60.53,8.05,85.39.44,113.32,0,148.41v.42c.08,1,.16,2.28.26,3.68.26,3.76.61,8.9,1,14A67.4,67.4,0,0,0,6,187a24.49,24.49,0,0,0,15.14,14,23,23,0,0,0,6.91,1.06,23.75,23.75,0,0,0,12.71-3.72,87.52,87.52,0,0,0,14.11-11C62,180.38,69,173.05,75.65,166l2.25-2.39A14.17,14.17,0,0,1,89,158.75h.1c23,.11,34.18.11,57.15,0h.1a14.11,14.11,0,0,1,11.05,4.81l2.4,2.55c5.84,6.23,11.88,12.68,18.16,18.76a127.6,127.6,0,0,0,15.33,12.67,23.85,23.85,0,0,0,20.42,3.57,24.21,24.21,0,0,0,15.55-14.19,54.38,54.38,0,0,0,3.16-10.5A163.85,163.85,0,0,0,235,137.9Zm-12.42,36.63A44.36,44.36,0,0,1,220,183.1a14.26,14.26,0,0,1-9.1,8.42A13.71,13.71,0,0,1,199,189.36a117.65,117.65,0,0,1-14.13-11.68c-6.11-5.91-12.06-12.26-17.82-18.41l-2.4-2.56a24,24,0,0,0-18.34-8h-.15c-22.93.11-34.12.11-57.05,0a24.05,24.05,0,0,0-18.48,8l-2.25,2.39c-6.61,7-13.45,14.26-20.44,21a77.5,77.5,0,0,1-12.5,9.75,13.31,13.31,0,0,1-11.27,1.57,14.51,14.51,0,0,1-8.91-8.37,57.61,57.61,0,0,1-4-17.49c-.43-5-.76-9.85-1-13.77-.09-1.32-.17-2.5-.24-3.5.44-33,7.55-59.23,22.38-82.4,6.29-9.83,13.18-16.18,21.69-20,10.49-4.69,21.5-4.7,33.66,0A100.58,100.58,0,0,1,103.37,54c6,3.61,22.48,4.11,28.78-.23A61.23,61.23,0,0,1,158.65,43c14.8-2.1,27.1,2.53,37.62,14.14,7.58,8.37,12.54,18.31,16.38,26.93,7.37,16.51,11.4,34.26,12.34,54.28A153.88,153.88,0,0,1,222.57,174.53Z"/><path d="M90.22,93.59H74.31c-.72,0-1.44-.06-2.32-.1V91.1c0-5.44,0-10.88,0-16.32,0-2.25-.7-3-2.93-3-3.26,0-6.53,0-9.79,0-2.49,0-3.22.79-3.23,3.35,0,4.62,0,9.25,0,13.87v4.58H53.57c-5.44,0-10.88,0-16.32,0-2.16,0-3,.8-3,2.94,0,3.26,0,6.53,0,9.79,0,2.54.69,3.2,3.31,3.2H56V112c0,5.37,0,10.74,0,16.11,0,2.4.81,3.25,3.14,3.28q4.89.06,9.79,0c2.25,0,3-.83,3-3.14,0-4.9,0-9.79,0-14.69v-4.05c6.44,0,12.49,0,18.53,0,2.64,0,3.34-.72,3.35-3.42q0-4.49,0-9C93.86,94.29,93.15,93.6,90.22,93.59Z"/><path d="M184.65,80.53a10.56,10.56,0,1,0-10.47,10.58A10.63,10.63,0,0,0,184.65,80.53Z"/><path d="M186,103.85a10.56,10.56,0,1,0,10.51,10.56A10.69,10.69,0,0,0,186,103.85Z"/><path d="M152,98.47a10.54,10.54,0,0,0-.14,21.08A10.54,10.54,0,1,0,152,98.47Z"/></svg>