<svg id="Calque_1" data-name="Calque 1" xmlns="http://www.w3.org/2000/svg" viewBox="0 0 185.87 184.91"><title>Plan de travail 27</title><polygon points="63.83 93.45 63.83 50.15 101.33 71.8 138.83 93.45 101.33 115.11 63.83 136.76 63.83 93.45"/><path d="M185.85,18.3C185.85,7.87,176.05,0,163.08,0Q93,0,23,0a31.26,31.26,0,0,0-6,.56C6.68,2.6,0,9.73,0,18.74Q0,92.35,0,166c0,11.34,9.51,19,23.67,19H162.2c14.15,0,23.66-7.62,23.66-19V71.79Q185.87,45,185.85,18.3Zm-10,53.49V158H10Q10,93,10,27.89H175.86Q175.87,49.84,175.86,71.78ZM18.93,10.39A21.56,21.56,0,0,1,23,10l86.24,0h53.85c7.07,0,12.43,3.36,12.75,7.89H10.06C10.48,14.18,13.73,11.41,18.93,10.39ZM162.2,174.91H23.67c-5.86,0-12.07-1.86-13.4-6.89H175.59C174.26,173,168.06,174.91,162.2,174.91Z"/></svg>