<svg id="Calque_1" data-name="Calque 1" xmlns="http://www.w3.org/2000/svg" viewBox="0 0 167.63 174.53"><title>Plan de travail 19</title><path d="M78.69,174.53V146.13c-2.22-.15-4.49-.32-6.75-.62-24.49-3.25-43.87-13.88-57.61-31.61C-6.81,86.61-4.42,50.27,20.16,25.52,34.17,11.41,51.82,3.05,72.63.68,94.72-1.83,115,2.63,132.93,14s29,26.47,33,45.15c5,23.08-1.2,43.69-18.51,61.27a126.76,126.76,0,0,1-14.07,11.79c-1.65,1.25-3.29,2.49-4.91,3.77-9.46,7.44-19.11,15-28.44,22.24l-11,8.56c-.43.33-.86.66-1.43,1.08ZM84.35,10a93.55,93.55,0,0,0-10.59.61c-18.49,2.11-34.14,9.49-46.51,21.94-20.93,21.08-23,52-5,75.22,12.23,15.79,28.92,24.89,51,27.82,2.3.31,4.66.46,7.17.62,1.21.08,2.43.16,3.67.26l4.6.37v17.5l5.2-4.06c9.32-7.27,19-14.78,28.41-22.21,1.66-1.31,3.36-2.59,5-3.88a117.5,117.5,0,0,0,13-10.84c14.79-15,20.12-32.56,15.86-52.13-3.47-16-13.1-29-28.6-38.82A79.61,79.61,0,0,0,84.35,10Z"/></svg>