<svg id="Calque_1" data-name="Calque 1" xmlns="http://www.w3.org/2000/svg" viewBox="0 0 245.21 183.8"><title>mooc</title><path d="M21.27,139.24v-3q0-57.54,0-115.09C21.27,8.15,27.39,0,40.36,0h155C207.72,0,216,8.29,216,20.62q0,57.78,0,115.55v3.06c1.88,0,3.63,0,5.38,0,2.89.08,5.6,2.1,5.64,4.82.09,7.1.46,14.29-.4,21.3-1.31,10.59-10.82,18.3-21.52,18.41-6.65.06-9.3,0-16,0H33.12c-11.84,0-21.27-7.67-22.65-19.31-.8-6.71-.36-13.59-.23-20.39.05-2.73,2.53-4.72,5.34-4.83C17.36,139.18,19.13,139.24,21.27,139.24Zm183.63,0v-2.51q0-58,0-116c0-6.41-3.13-9.56-9.52-9.56H39.93c-6.38,0-7.52,3.15-7.52,9.56q0,58,0,116v2.51H95.34c4.35,0,6.58,2.23,6.6,6.53,0,1.51,0,3,0,4.47h33.42c0-1.42,0-2.72,0-4,0-4.94,2.08-7,7.07-7H204.9Zm-58.4,11.23c0,1.87,0,3.48,0,5.1a5.72,5.72,0,0,1-6,5.94q-21.81,0-43.62,0c-3.69,0-6-2.41-6-6.16,0-1.6,0-3.2,0-4.81H21.27c0,3.24,0,6.33,0,9.41q0,12.69,12.66,12.71H161.2c15.78,0,27.55,0,43.33,0,5.86,0,10.51-3.44,11.21-9,.54-4.3.11-8.73.11-13.18Z"/><path d="M187.87,57.82Q154.29,44.6,120.66,31.47a6.13,6.13,0,0,0-4.07,0Q82.94,44.53,49.37,57.8a5,5,0,0,0-3.45,4.75,4.67,4.67,0,0,0,3.4,4.53c1.23.4,1.41,1.14,1.4,2.26-.05,4.24,0,8.49-.06,12.73a5.24,5.24,0,0,1-.9,2.71,7.23,7.23,0,0,0,1,9.85,7.25,7.25,0,0,0,10.52-9.87A3.56,3.56,0,0,1,60.45,83c-.08-3.76,0-7.51,0-11.54,2.9,1.13,5.56,2.24,8.26,3.2a2,2,0,0,1,1.46,2.23c-.05,7,0,14-.06,21-.05,3.5,1.05,6.51,3.8,8.5a50.12,50.12,0,0,0,9.66,5.71c8.94,3.8,18.44,5.34,28.1,5.92,13.22.79,26.22-.43,38.84-4.65,4.81-1.61,9.43-3.61,13.19-7.18a10.49,10.49,0,0,0,3.48-8.07c-.08-6.8,0-13.6-.07-20.4,0-1.79.39-2.69,2.2-3.36,6.24-2.3,12.4-4.84,18.59-7.27a4.88,4.88,0,0,0,0-9.32Zm-30.54,40.1c0,.72-.89,1.6-1.58,2.11-4.26,3.13-9.21,4.68-14.27,5.86-17,4-33.92,3.77-50.63-1.43-3.47-1.08-6.65-3.13-9.89-4.86a2.61,2.61,0,0,1-1.11-1.93c-.08-6.06,0-12.11,0-18.56l17.9,7c6.13,2.4,12.28,4.78,18.39,7.24a6.39,6.39,0,0,0,5.06,0Q138,86.66,154.94,80.07c.74-.29,1.49-.54,2.47-.9C157.41,85.57,157.46,91.75,157.34,97.92ZM171,63.4q-25.44,10-50.9,19.93a4,4,0,0,1-2.64.13q-26-10.11-52-20.35c-.31-.12-.6-.27-1.42-.65l16.75-6.59c12.07-4.75,24.14-9.53,36.23-14.22a4.56,4.56,0,0,1,3-.06q25.66,10,51.25,20.12c.48.19.95.42,1.75.78C172.16,62.88,171.59,63.17,171,63.4Z"/></svg>