<svg id="Calque_1" data-name="Calque 1" xmlns="http://www.w3.org/2000/svg" viewBox="0 0 148.24 187.71"><title>Plan de travail 21</title><path d="M77.47,45a45.57,45.57,0,0,1-3,16,2.09,2.09,0,0,0,.4,2.33q6.26,7.55,12.4,15.21a2.64,2.64,0,0,0,2.34,1.06c5.95-.09,11.89.13,17.56,2.13a20.26,20.26,0,0,1,6.13,3.33c4.4,3.65,3.55,9.52-1.6,12-3.87,1.88-7.85,1.6-11.76.08-4.82-1.87-8.72-5.13-12.19-8.83a6,6,0,0,0-5.64-1.95A104.71,104.71,0,0,0,62.54,90a3.86,3.86,0,0,0-2,1.59c-3.45,5.86-6.91,11.71-11.37,16.88a16.23,16.23,0,0,1-7.22,5.24,8.44,8.44,0,0,1-5.71.06,6.58,6.58,0,0,1-4-7.31,17.27,17.27,0,0,1,4.2-8.39c4.93-6,11.41-9.68,18.53-12.34a4.55,4.55,0,0,0,2.79-2.54Q62,74,66.27,64.74a2.72,2.72,0,0,0-.22-2.81,34.7,34.7,0,0,1-4.52-22.4,12.51,12.51,0,0,1,2.68-6.42c3.55-4.23,9.31-3.49,11.62,1.52C77.34,37.91,77.44,41.45,77.47,45ZM80,80,71.43,69.37l-5.94,13ZM38.35,107.69c3.43,0,11.38-8.49,12.51-13.12C45.5,97.81,40.58,101.3,38.35,107.69ZM95.24,86.36c2.52,2.39,5.17,4.55,8.61,5.29,2,.43,4,.59,6-1.13C105.5,86.8,100.35,86.68,95.24,86.36ZM69.87,36.77c-3.32,2.19-2.58,13.35,0,17.59C71.13,48.45,71.77,42.71,69.87,36.77Z"/><path d="M47.07,160.07H37.31V123.92h9.46q7.07,0,10.49,2.88,4,3.39,4,9.43,0,6.58-4.28,9.81-2.93,2.18-8.4,2.18H47.07Zm0-20,.45,0A3.76,3.76,0,0,0,50.35,139a4.11,4.11,0,0,0,1.05-3,4.44,4.44,0,0,0-1-3,3.31,3.31,0,0,0-2.62-1.19h-.68Z"/><path d="M64.7,160.07V123.92h8.43q7.23,0,11.26,3.89,5.29,5.08,5.29,14.21T85.2,155.9q-3.82,4.17-11.38,4.17Zm9.76-8.73q5.24-.26,5.24-9a14.65,14.65,0,0,0-1.33-6.84,4,4,0,0,0-3.61-2.53h-.3Z"/><path d="M103.6,160.07H93.84V123.92h17.25v8.5H103.6v5.27h7v8.17h-7Z"/><path d="M72,187.71c-17.07,0-32.58,0-47.62,0A24.48,24.48,0,0,1,0,163.21C0,117.12,0,70.58,0,24.87A24.62,24.62,0,0,1,24.85,0C46.29,0,67.45,0,92.64.05A8.31,8.31,0,0,1,98.26,2.4c16.06,16,32.07,32,47.59,47.59a8.34,8.34,0,0,1,2.32,5.6c.05,4.68,0,9.27,0,14.13V153c0,.88,0,1.75,0,2.61,0,2,0,4.09,0,6.17a35.74,35.74,0,0,1-.78,7.17,24.31,24.31,0,0,1-23.65,18.69C104.66,187.7,87.68,187.71,72,187.71ZM50.77,10c-8.77,0-17.31,0-25.9,0A14.55,14.55,0,0,0,10,24.87c0,45.7,0,92.24,0,138.33A14.47,14.47,0,0,0,24.4,177.67c28.83.06,59.47.06,99.33,0a14.52,14.52,0,0,0,13.94-11,27.85,27.85,0,0,0,.51-5.2c.07-1.85.05-3.73,0-5.71,0-.89,0-1.79,0-2.69V69.71c0-4.56,0-8.89,0-13.25C123,41.26,107.43,25.65,91.77,10,77,10,63.64,10,50.77,10Z"/><path d="M143.17,60.65H93.65a5,5,0,0,1-5-4.9l-1-50.59,10-.2.92,45.7h44.62Z"/></svg>