<svg id="Calque_1" data-name="Calque 1" xmlns="http://www.w3.org/2000/svg" viewBox="0 0 185.29 184.34"><title>Plan de travail 9</title><path d="M161.69,184.34H23.6c-14.12,0-23.6-7.6-23.6-18.91V142.86Q0,80.78,0,18.7C0,9.7,6.66,2.59,17,.57a31.25,31.25,0,0,1,6-.55Q92.74,0,162.56,0c12.94,0,22.71,7.85,22.72,18.25q0,26.66,0,53.31v93.86C185.29,176.74,175.8,184.34,161.69,184.34ZM108.88,10l-86,0a21.55,21.55,0,0,0-4,.37C13.32,11.48,10,14.58,10,18.7q0,62.08,0,124.16v22.57c0,6.57,7,8.91,13.6,8.91H161.69c6.57,0,13.6-2.34,13.6-8.92V71.57q0-26.65,0-53.31c0-4.71-5.47-8.25-12.72-8.25Z"/><path d="M42.75,144.23c.28-.23.59-.48.89-.74q8.91-7.79,17.82-15.59A6,6,0,1,1,69.3,137c-4.92,4.35-9.88,8.66-14.82,13-2.47,2.16-4.93,4.34-7.41,6.49a6,6,0,0,1-8.2.17c-3.45-2.73-6.92-5.45-10.32-8.24A6,6,0,0,1,33.93,138a8.21,8.21,0,0,1,2.5,1.36c2,1.54,4,3.17,6,4.76A1.28,1.28,0,0,0,42.75,144.23Z"/><path d="M42.75,42.47c.28-.23.59-.48.89-.74q8.91-7.79,17.82-15.59a6,6,0,1,1,7.85,9.08c-4.92,4.35-9.88,8.66-14.82,13-2.47,2.16-4.93,4.34-7.41,6.49a6,6,0,0,1-8.2.17c-3.45-2.73-6.92-5.45-10.32-8.24a6,6,0,0,1,5.38-10.39,8.21,8.21,0,0,1,2.5,1.36c2,1.54,4,3.17,6,4.76A1.28,1.28,0,0,0,42.75,42.47Z"/><path d="M86.29,100.94V85.35h52v15.6Z"/><path d="M56.21,89.25C57.81,90.84,59.43,92.42,61,94A6.44,6.44,0,1,1,52,103.17c-1.61-1.6-3.19-3.24-4.88-5-1.77,1.78-3.42,3.5-5.14,5.16a6.43,6.43,0,1,1-9-9.16c1.65-1.67,3.34-3.31,5.08-5-1.7-1.69-3.32-3.28-4.92-4.9a6.44,6.44,0,1,1,9.07-9.13c1.61,1.6,3.19,3.23,4.91,5,1.78-1.81,3.45-3.58,5.2-5.27a6.33,6.33,0,0,1,7.15-1.22,6.44,6.44,0,0,1,3.73,6.23,6.51,6.51,0,0,1-2,4.32Q58.74,86.58,56.39,89A1.81,1.81,0,0,0,56.21,89.25Z"/><path d="M86.29,154.44V138.89H156.4v15.56Z"/><path d="M86.29,48.26V32.7H156.4V48.26Z"/></svg>