<?xml version="1.0" encoding="UTF-8"?>
<svg width="76px" height="92px" viewBox="0 0 76 92" version="1.1" xmlns="http://www.w3.org/2000/svg" xmlns:xlink="http://www.w3.org/1999/xlink">
    <!-- Generator: Sketch 49 (51002) - http://www.bohemiancoding.com/sketch -->
    <title>investmentgame</title>
    <desc>Created with Sketch.</desc>
    <defs>
        <polygon id="path-1" points="25.8980364 0.188488636 0.0490237261 0.188488636 0.0490237261 17.8103841 25.8980364 17.8103841 25.8980364 0.188488636"></polygon>
    </defs>
    <g id="Landing-ATP" stroke="none" stroke-width="1" fill="none" fill-rule="evenodd">
        <g id="HP-Landing-ATP-alerte" transform="translate(-1175.000000, -2788.000000)">
            <g id="05---Formats-pédagogiques" transform="translate(20.000000, 2726.000000)">
                <g id="content" transform="translate(715.000000, 42.000000)">
                    <g id="invementgame" transform="translate(388.000000, 0.000000)">
                        <g id="Group-28" transform="translate(7.000000, 20.000000)">
                            <g id="investmentgame" transform="translate(45.000000, 0.000000)">
                                <path d="M11.963458,26.772533 C11.6952989,26.772533 11.424117,26.701283 11.1786284,26.5518739 C10.469367,26.1196239 10.241367,25.1961807 10.6686511,24.4836807 C14.1521284,18.673567 19.9037307,13.341692 20.1468443,13.1175784 C20.755708,12.5562148 21.7026852,12.5896807 22.270742,13.1918511 C22.8387989,13.7942375 22.8165602,14.7416466 22.2206511,15.3166125 C22.1630034,15.372317 16.4129125,20.9444989 13.2500602,26.0561466 C12.9644125,26.5179761 12.4697648,26.772533 11.963458,26.772533" id="Fill-1" fill="#0D1B49"></path>
                                <path d="M25.7301886,40.6118955 L29.6059727,43.11385 L29.5180977,42.1599636 L29.4069045,42.0984295 C28.9919273,41.8680545 28.7090864,41.4561 28.64345,40.9860659 L25.5082341,18.5576455 L23.0213932,17.0829864 L25.7301886,40.6118955 Z M31.3958591,47.5797136 C31.1104273,47.5797136 30.8254273,47.4989636 30.5762682,47.3381114 L23.4907795,42.7640773 C23.1107795,42.5188045 22.8607568,42.11635 22.8089386,41.6672591 L19.6698364,14.4016114 C19.6042,13.8311795 19.8673932,13.2728386 20.3493023,12.9606341 C20.8312114,12.6482136 21.4484955,12.6359068 21.9422795,12.9288955 L27.6750977,16.3286 C28.0704273,16.5628614 28.3375068,16.9642364 28.4012,17.4193727 L31.5327455,39.8208045 L31.6830182,39.9043614 C32.1200182,40.1468273 32.4091205,40.5896568 32.4548932,41.0873273 L32.9009614,45.9297364 C32.954075,46.5055659 32.6736091,47.0613159 32.1789614,47.3609977 C31.9380068,47.5069523 31.666825,47.5797136 31.3958591,47.5797136 Z" id="Fill-3" fill="#0D1B49"></path>
                                <path d="M10.0503307,30.808392 C9.90416023,30.808392 9.75539886,30.787017 9.60858068,30.742108 C8.82137614,30.5018011 8.37120568,29.675517 8.59596705,28.8837784 C8.96193295,27.595233 9.66298977,26.1086989 10.6797057,24.4658466 C11.1167057,23.759392 12.042092,23.5383011 12.7511375,23.9703352 C13.4603989,24.4023693 13.688183,25.3258125 13.2611148,26.0380966 C12.4503761,27.3901193 11.8533875,28.6445511 11.486342,29.7664148 C11.2782057,30.4026989 10.6872625,30.808392 10.0503307,30.808392" id="Fill-5" fill="#0D1B49"></path>
                                <path d="M11.8324227,28.8324136 L22.3690023,37.8448909 L20.0332977,17.5587205 C18.0603205,19.6612432 15.1807409,22.9387432 13.2556955,26.0471864 C12.6656159,27.0319477 12.1891045,27.9648909 11.8324227,28.8324136 M24.3106727,43.0057659 C23.9578773,43.0057659 23.6081045,42.8822659 23.3280705,42.6428227 L9.06749091,30.4450386 C8.60242273,30.0473341 8.42321818,29.4082432 8.61343409,28.8268 C9.05043409,27.4905386 9.74199091,26.0292659 10.6686727,24.4837886 C10.6721273,24.4777432 10.6760136,24.4716977 10.6796841,24.4656523 C14.0444114,19.02755 19.8754682,13.3787205 20.1222523,13.1410045 C20.53615,12.7417886 21.1402636,12.6118114 21.6817636,12.8061295 C22.2228318,13.0004477 22.6069341,13.4847318 22.6727864,14.0560273 L25.8118886,41.3214591 C25.8829227,41.9387432 25.5689909,42.5368114 25.0203659,42.8285045 C24.7969,42.9474705 24.5531386,43.0057659 24.3106727,43.0057659" id="Fill-7" fill="#0D1B49"></path>
                                <path d="M3.73244205,50.3829477 C3.6482375,50.3829477 3.56316932,50.3760386 3.47745341,50.3613568 C2.65721477,50.2220955 2.10383977,49.4459023 2.23943068,48.6250159 C2.8929875,44.6695614 4.09797614,40.7102205 5.82114659,36.8571068 C6.1609875,36.0973227 7.05139659,35.7551068 7.81226023,36.0921409 C8.57355568,36.4289591 8.91901023,37.3176409 8.58543068,38.0802318 C7.4957375,40.5692318 6.02733977,44.5069818 5.21940795,49.1315386 C5.09115795,49.8654136 4.4533625,50.3829477 3.73244205,50.3829477" id="Fill-9" fill="#0D1B49"></path>
                                <path d="M24.7306591,46.0358773 L19.7664773,52.5172523 L25.0409205,46.2824455 L24.7306591,46.0358773 Z M7.15868182,71.2715477 C6.88123864,71.2715477 6.60120455,71.1951159 6.35182955,71.0375023 L4.66514773,69.9709114 C4.30652273,69.7444227 4.05973864,69.3769455 3.98525,68.9593773 C3.91054545,68.5413773 4.01504545,68.1115023 4.27327273,67.7746841 L21.7174318,44.9988659 L8.414625,34.3666386 C7.79431818,33.8706955 7.66347727,32.9792068 8.115375,32.3260818 C8.56770455,31.6729568 9.44796591,31.4812295 10.1304545,31.8869227 L16.5977955,35.7309682 C16.6563068,35.7659455 16.7124432,35.8045932 16.7655568,35.8469114 L28.141375,44.8852977 C28.4615682,45.1396386 28.6649545,45.5127295 28.7053295,45.9197182 C28.7454886,46.3267068 28.6191818,46.7326159 28.355125,47.0446045 L8.31336364,70.7360932 C8.01692045,71.0867295 7.59071591,71.2715477 7.15868182,71.2715477 Z" id="Fill-11" fill="#0D1B49"></path>
                                <path d="M5.47374886,70.205475 C4.90115795,70.205475 4.35469205,69.8781568 4.10035114,69.3260773 C4.08243068,69.2872136 3.65860114,68.3603159 3.1732375,66.7256682 C2.93681705,65.9291795 3.38720341,65.0912364 4.18218068,64.8494182 C4.97672614,64.6080318 5.81790795,65.0525886 6.06490795,65.8458386 C6.30758977,66.6241909 6.58028295,67.393475 6.87607841,68.1318841 C7.18072614,68.8929636 6.82318068,69.7583273 6.07030568,70.0821909 C5.87577159,70.1655318 5.67303295,70.205475 5.47374886,70.205475" id="Fill-13" fill="#0D1B49"></path>
                                <path d="M7.19996364,38.9859489 C6.99571364,38.9859489 6.78800909,38.9442784 6.58915682,38.8561875 C5.82807727,38.5193693 5.48240682,37.6306875 5.81620227,36.8680966 C7.025725,34.1053239 8.02840682,32.463767 8.07050909,32.395108 C8.50124773,31.6938352 9.41411136,31.4660511 10.1238045,31.8827557 C10.8334977,32.2996761 11.0792023,33.2075739 10.6765318,33.9254716 C9.91437273,35.2839716 9.20921364,36.6854375 8.58048636,38.0912216 C8.32938409,38.6525852 7.77795227,38.9859489 7.19996364,38.9859489" id="Fill-15" fill="#0D1B49"></path>
                                <path d="M4.62149091,67.8072648 C3.97721818,67.8072648 3.38066136,67.3920716 3.17900227,66.745208 C1.43359318,61.144742 1.11815,55.043583 2.24195682,48.6114352 C2.38510455,47.7918443 3.16345682,47.2421398 3.98391136,47.3814011 C4.80415,47.5206625 5.357525,48.2968557 5.22171818,49.1175261 C3.93900227,56.8820489 5.20315,62.9432648 6.07088864,65.8653784 C6.30730909,66.6616511 5.85670682,67.4995943 5.06194545,67.7414125 C4.91534318,67.7858898 4.76722955,67.8072648 4.62149091,67.8072648" id="Fill-17" fill="#0D1B49"></path>
                                <path d="M9.82977955,35.4976568 C9.38716591,36.3543841 8.96916591,37.2219068 8.58052955,38.0911568 C7.49580227,40.5691455 6.02740455,44.5071114 5.21947273,49.1314523 C3.983825,56.6114068 5.11799545,62.5180318 5.978825,65.5478841 L21.7175182,44.9989523 L9.82977955,35.4976568 Z M5.47316591,70.2050432 C5.40493864,70.2050432 5.33627955,70.2005091 5.26740455,70.1910091 C4.72914318,70.1171682 4.27184773,69.7598386 4.06997273,69.255475 C3.74481364,68.4434409 3.44513182,67.5990205 3.17913182,66.7453159 C2.23150682,63.5546114 0.858109091,56.9864409 2.23949545,48.6251455 C3.10140455,43.6903273 4.66026818,39.5092477 5.81624545,36.8680318 C6.487075,35.3683273 7.23368864,33.8843841 8.04010909,32.4466455 C8.25731364,32.0595205 8.63342727,31.787475 9.06913182,31.7026227 C9.50375682,31.6175545 9.95522273,31.7283159 10.3019727,32.0053273 L24.7611886,43.5618614 C25.4035182,44.0755091 25.5175182,45.0086682 25.0172568,45.6615773 L6.67275682,69.6128045 C6.38451818,69.9889182 5.93952955,70.2050432 5.47316591,70.2050432 Z" id="Fill-19" fill="#0D1B49"></path>
                                <g id="Group-23" transform="translate(23.965909, 0.027420)">
                                    <mask id="mask-2" fill="white">
                                        <use xlink:href="#path-1"></use>
                                    </mask>
                                    <g id="Clip-22"></g>
                                    <path d="M1.44158182,17.8103841 L0.06365,7.95305455 C-0.0129977273,7.405725 0.215434091,6.86012273 0.658911364,6.53042955 C5.81741136,2.69804318 11.0588205,0.580838636 16.2378318,0.237759091 C20.5555818,-0.0483204545 23.8736727,0.965156818 25.8980364,1.86592955 L24.6692977,4.62762273 C15.9875932,0.765009091 7.20117273,5.61713409 3.18310455,8.43604318 L4.43516136,17.3919523 L1.44158182,17.8103841 Z" id="Fill-21" fill="#0D1B49" mask="url(#mask-2)"></path>
                                </g>
                                <path d="M32.2090375,40.1962057 L34.2675148,41.3381489 L34.4680943,41.1885239 L34.1990716,41.0654557 C33.813458,40.8892739 33.5196057,40.5595807 33.3891966,40.1560466 C33.2585716,39.7529443 33.3034807,39.3133534 33.5126966,38.9447966 L52.0649011,6.26242159 C51.9206739,6.18706932 51.7762307,6.11279659 51.6317875,6.03917159 L32.2090375,40.1962057 Z M34.387992,44.6447966 C34.136458,44.6447966 33.8840602,44.582183 33.6549807,44.4552284 L30.2166284,42.5476716 L31.5941284,40.064717 L29.4877193,38.8670693 L48.8782989,4.76617159 C48.8007875,4.72968295 48.7196057,4.6927625 48.6351852,4.65497841 C47.8788557,4.31859205 47.5340489,3.4363875 47.861583,2.67617159 C48.1889011,1.91617159 49.0670034,1.56078523 49.8308898,1.87903523 C51.533117,2.5885125 53.2331852,3.42127386 54.8831625,4.35443295 C55.2325034,4.55198977 55.4887875,4.88017159 55.5958784,5.26686477 C55.7027534,5.65377386 55.651583,6.06702386 55.4535943,6.41593295 L36.9560148,39.0017966 L38.045492,39.4992511 C38.5310716,39.7212057 38.8635716,40.1828193 38.9201398,40.7137398 C38.9769239,41.2448761 38.7491398,41.7662966 38.320992,42.0854102 L35.2917875,44.3451148 C35.0253557,44.543967 34.7075375,44.6447966 34.387992,44.6447966 Z" id="Fill-24" fill="#0D1B49"></path>
                                <polygon id="Fill-26" fill="#0D1B49" points="31.4540034 41.523917 28.8263898 40.0296102 29.4877193 38.8669398 32.115333 40.3612466"></polygon>
                                <path d="M26.0879068,91.572875 C26.0097477,91.572875 25.9305091,91.5668295 25.8510545,91.5540909 C25.3961341,91.4824091 14.6242136,89.7300909 6.91885,84.0551364 C6.275225,83.5807841 6.11199773,82.6877841 6.54640682,82.0165227 C6.98081591,81.3456932 7.86280455,81.1291364 8.55867955,81.5220909 C10.4522023,82.5921364 12.5430659,83.182 14.7870091,83.2806705 L24.9777023,49.0096364 L27.8749864,49.8711136 L17.3604295,85.2320568 C17.2768727,85.5129545 17.1166682,85.7554205 16.9065886,85.9389432 C19.9925773,87.1199659 22.8345886,87.8415341 24.5715773,88.2228295 L19.7796909,85.7083523 C19.1418955,85.3736932 18.8288273,84.6357159 19.0315659,83.9445909 L29.12035,49.5565341 C29.2455773,49.1296818 29.5526,48.7796932 29.9595886,48.5998409 C29.9788045,48.5914205 29.9982364,48.5832159 30.0178841,48.5754432 L26.8768386,47.0049205 L27.2866341,46.1853295 L25.9369864,45.7839545 L26.1041,45.2221591 C26.2314864,44.7940114 26.5417477,44.4442386 26.9515432,44.2663295 C27.3615545,44.0890682 27.8289977,44.1018068 28.2286455,44.3015227 L35.4115091,47.8927386 C35.9385432,48.1561477 36.26435,48.70175 36.2462136,49.2905341 L36.1633045,52.0146591 C36.1475432,52.5270114 35.8731227,52.9966136 35.4343955,53.2619659 C34.9956682,53.5271023 34.452225,53.5515 33.9912591,53.3273864 L31.5173727,52.1236932 L22.2807818,83.607125 L27.4729636,86.3318977 C28.1073045,86.6646136 28.4208045,87.3969773 28.2238955,88.0857273 L27.5398955,90.4769205 C27.3518386,91.1337159 26.7522591,91.572875 26.0879068,91.572875" id="Fill-28" fill="#0D1B49"></path>
                                <polygon id="Fill-30" fill="#0D1B49" points="27.8750511 49.8712216 24.977767 49.0097443 25.9368352 45.7840625 28.8341193 46.6457557"></polygon>
                                <path d="M27.2932193,47.6528852 C26.9551057,47.6528852 26.6232534,47.539317 26.353583,47.3253511 L26.2618216,47.2525898 C25.9414125,46.9982489 25.7375943,46.6247261 25.6972193,46.2179534 C25.6568443,45.8107489 25.7831511,45.4048398 26.0474239,45.0926352 L26.398708,44.6772261 C26.8978898,44.0873625 27.7606625,43.9688284 28.3999693,44.4017261 C29.039492,44.8348398 29.2497875,45.6803398 28.8872761,46.3621807 L28.6279693,46.850567 C28.417242,47.2469761 28.0413443,47.5293852 27.6021852,47.6211466 C27.4996284,47.6423057 27.396208,47.6528852 27.2932193,47.6528852" id="Fill-32" fill="#0D1B49"></path>
                                <path d="M7.80805,84.3483625 C7.55802727,84.3483625 7.30476591,84.2857489 7.07158409,84.1540443 C2.33972045,81.4802261 0.2413,77.2799307 0.154288636,77.1022375 C-0.109768182,76.5633284 -0.0300977273,75.9192716 0.357459091,75.4611125 L6.00564091,68.7841239 L8.31349318,70.736158 L3.35773182,76.5944193 C4.12809545,77.7750102 5.82341364,79.9768511 8.55855,81.5221125 L7.85015227,82.7761125 L8.69457273,81.608908 C9.34057273,82.081533 9.51243636,82.9803625 9.078675,83.6527034 C8.79000455,84.100283 8.30528864,84.3483625 7.80805,84.3483625" id="Fill-34" fill="#0D1B49"></path>
                                <path d="M27.3856716,47.7262511 C27.0484216,47.7262511 26.7161375,47.6135466 26.4453875,47.3980693 L26.3529784,47.3248761 C25.7825466,46.871683 25.6167284,46.075842 25.9585125,45.432433 L26.2180352,44.9440466 C26.5822739,44.2585352 27.4068307,43.9605807 28.125592,44.2546489 C28.8441375,44.548933 29.2226261,45.339808 29.0013193,46.0842625 L28.8342057,46.645842 C28.691058,47.1271034 28.3183989,47.505808 27.8397284,47.6565125 C27.6907511,47.7033648 27.5376716,47.7262511 27.3856716,47.7262511" id="Fill-36" fill="#0D1B49"></path>
                                <path d="M27.8750511,49.8712216 L24.977767,49.0097443 L25.9368352,45.7840625 L27.2635966,46.1785284 L28.2334602,44.9582102 L28.3256534,45.0316193 C28.808858,45.4152898 29.0100852,46.0541648 28.8341193,46.6457557 L27.8750511,49.8712216 Z" id="Fill-38" fill="#0D1B49"></path>
                                <path d="M29.0649693,90.4659091 C28.714117,90.4659091 28.5072761,90.4486364 28.4712193,90.4453977 C28.2114807,90.4218636 27.9623216,90.3316136 27.7479239,90.1832841 L25.9111852,88.9133068 L27.6302534,86.4268977 L29.0992989,87.44275 C29.970492,87.4375682 32.354992,87.2816818 35.2846625,85.9173523 L32.3394466,84.1188295 C31.8698443,83.8316705 31.5930489,83.3124091 31.6172307,82.7627045 L32.5674466,61.020875 L35.5871511,61.1527955 L34.6760148,82.0037841 L37.9520034,84.0043977 C38.4015261,84.2788182 38.6757307,84.7674205 38.6757307,85.2942386 L38.6757307,86.6553295 C38.6757307,87.2048182 38.3771284,87.711125 37.8962989,87.9775568 C33.8551284,90.2150227 30.4072761,90.4659091 29.0649693,90.4659091" id="Fill-40" fill="#0D1B49"></path>
                                <path d="M28.8680386,83.9154864 L27.9439477,81.90235 L27.8962318,81.9006227 L27.8996864,81.8060545 L27.6069136,81.168475 C27.722425,81.1153614 27.8297318,81.0648386 27.9284023,81.0173386 L28.0424023,77.8888159 L31.0631864,77.9989295 L30.9168,82.0107364 C30.8978,82.5321568 30.6112886,83.0069409 30.1587432,83.2664636 C30.1384477,83.2781227 29.6569705,83.5534068 28.8680386,83.9154864" id="Fill-42" fill="#0D1B49"></path>
                                <path d="M31.0630784,77.9988648 L28.0422943,77.8887511 L29.0603057,49.9270125 C29.0788739,49.4163875 29.3543739,48.949592 29.7926693,48.6863989 C30.2307489,48.4234216 30.7722489,48.3994557 31.2319193,48.6231375 L35.3138966,50.609717 C35.8620898,50.8763648 36.196317,51.4463648 36.1615557,52.0547966 L35.6401352,61.1730693 L32.6223739,61.000558 L33.0861466,52.8871261 L31.9964534,52.3568534 L31.0630784,77.9988648 Z" id="Fill-44" fill="#0D1B49"></path>
                                <path d="M26.0684966,89.0083284 L19.7797125,85.7083739 C19.1591898,85.382783 18.8437466,84.6735216 19.0177693,83.9944875 C19.192008,83.3158852 19.8149057,82.8452034 20.5103489,82.8590216 C23.359917,82.9086807 26.1807693,81.8228739 27.6072807,81.1682375 L28.867758,83.9156807 C28.0373716,84.2967602 26.7969739,84.8041466 25.3324625,85.2085443 L27.4729852,86.3319193 L26.0684966,89.0083284 Z" id="Fill-46" fill="#0D1B49"></path>
                                <path d="M28.8680386,83.9154864 L27.9439477,81.90235 L27.8962318,81.9006227 L27.8996864,81.8060545 L27.6069136,81.168475 C27.722425,81.1153614 27.8297318,81.0648386 27.9284023,81.0173386 L28.0424023,77.8888159 L31.0631864,77.9989295 L30.9168,82.0107364 C30.8978,82.5321568 30.6112886,83.0069409 30.1587432,83.2664636 C30.1384477,83.2781227 29.6569705,83.5534068 28.8680386,83.9154864" id="Fill-48" fill="#0D1B49"></path>
                                <path d="M62.6967182,20.8164648 C62.813525,20.8449648 62.9281727,20.8877148 63.0378545,20.9449307 L69.9013886,24.5277261 L72.8437977,22.449817 C71.4319682,13.3673852 66.1236273,9.89966932 65.7071386,9.64122614 L63.0346159,8.27452159 C64.376275,10.6197261 65.4957636,13.662317 65.8785705,17.5333511 C65.9308205,18.061033 65.7026045,18.5774875 65.2774795,18.8942261 L62.6967182,20.8164648 Z M44.9485591,37.1419989 L43.1411841,34.719067 L47.3144909,31.6060898 L45.8288205,29.6115216 L62.7727182,16.9907716 C61.5200136,7.66868068 55.4134568,4.37930568 55.0654114,4.1992375 L55.0533205,4.19297614 C54.3123205,3.81427159 54.0171727,2.90788523 54.3926386,2.16537386 C54.7322636,1.49368068 55.5047864,1.18493068 56.2006614,1.40731705 C56.201525,1.40753295 56.2021727,1.40753295 56.2028205,1.40796477 C56.2762295,1.43149886 56.3485591,1.46107841 56.4193773,1.49670341 C56.4269341,1.50058977 56.4377295,1.5059875 56.4515477,1.5131125 L67.1297636,6.97366932 C67.1541614,6.98597614 67.1781273,6.99914659 67.2016614,7.01296477 C67.5013432,7.18720341 74.5548773,11.4144875 75.9671386,22.9705898 C76.0347182,23.5226693 75.7933318,24.067408 75.3388432,24.3884648 L70.8913318,27.5288625 C70.4286386,27.855533 69.8219341,27.895908 69.3201614,27.6342261 L62.4808091,24.0641693 L44.9485591,37.1419989 Z" id="Fill-50" fill="#0D1B49"></path>
                                <path d="M37.4172182,42.3854591 C37.2041159,42.3854591 36.9899341,42.34055 36.7893545,42.2487886 L34.1990932,41.0656068 C33.7132977,40.8436523 33.3805818,40.3816068 33.3240136,39.8504705 C33.2676614,39.3193341 33.4958773,38.7979136 33.9242409,38.4788 L45.8286045,29.6114136 L47.6344682,32.0356409 L43.4592182,35.1455955 L44.9485591,37.1418909 L38.3212295,42.0855614 C38.0554455,42.2837659 37.7374114,42.3854591 37.4172182,42.3854591" id="Fill-52" fill="#0D1B49"></path>
                                <path d="M47.634425,32.0356193 L45.8287773,29.611392 L62.772675,16.990642 C61.8375727,10.0314602 58.1971295,6.43419886 56.2669023,4.98307386 L55.4535727,6.4160625 L52.8248795,4.92391477 L54.426925,2.10133523 C54.8237659,1.40222159 55.6981977,1.13600568 56.417175,1.49571023 C56.7555045,1.66476705 64.7156409,5.77330114 65.8787432,17.5334375 C65.9307773,18.0609034 65.7027773,18.577358 65.2774364,18.8940966 L47.634425,32.0356193 Z" id="Fill-54" fill="#0D1B49"></path>
                                <path d="M69.6970955,47.8276636 C69.455925,47.8276636 69.2171295,47.7698 69.0012205,47.6579591 L63.0363,44.5639818 L36.7221636,47.5573455 C36.4026182,47.5944818 36.0798341,47.5271182 35.8008795,47.3675614 L32.3595045,45.3991182 C31.7923114,45.0746068 31.4978114,44.4225614 31.6295159,43.7826068 C31.7612205,43.1424364 32.2893341,42.6596636 32.9385727,42.5856068 L35.4247659,42.3019023 L35.5916636,43.7657659 L36.8722205,44.4981295 L63.1524591,41.5084364 C63.4501977,41.4741068 63.7524705,41.5302432 64.0191182,41.6686409 L69.9652545,44.7529023 L70.135175,44.7291523 C71.9991182,37.4372545 71.2639477,30.6356864 70.9504477,28.4850159 L69.3203341,27.6341182 L70.7187773,24.9544705 L73.0197205,26.1553568 C73.4271409,26.3680273 73.7158114,26.7545045 73.8039023,27.2057545 C73.878175,27.5874818 75.5959477,36.6694818 72.7863227,46.5030614 C72.6220159,47.0780273 72.1342773,47.5020727 71.5420386,47.5847659 L69.9060955,47.8131977 C69.8365727,47.8229136 69.7666182,47.8276636 69.6970955,47.8276636" id="Fill-56" fill="#0D1B49"></path>
                                <polygon id="Fill-58" fill="#0D1B49" points="40.3491773 44.7823739 40.0065295 41.7790784 42.0136205 41.5502148 42.3562682 44.5532943"></polygon>
                                <path d="M47.2497398,43.9950614 L46.907092,40.9917659 L60.0116943,39.4968114 C60.3487284,37.9638568 60.9593193,34.8444023 61.2218648,31.3296182 L64.2361716,31.5548114 C63.8449443,36.7938455 62.7513648,41.0755386 62.7051602,41.255175 C62.5486261,41.8612318 62.0347625,42.3083795 61.4129443,42.3794136 L47.2497398,43.9950614 Z" id="Fill-60" fill="#0D1B49"></path>
                                <polygon id="Fill-62" fill="#0D1B49" points="35.7673273 45.3052841 35.4246795 42.3019886 40.0064864 41.7790568 40.3491341 44.7823523"></polygon>
                                <path d="M64.2362364,31.5547898 L61.2219295,31.3295966 C61.4747591,27.9445739 61.3523386,25.0036761 60.8576909,22.5880852 C60.7408841,22.0165739 60.9628386,21.4288693 61.4287705,21.0778011 C61.8944864,20.7269489 62.5206227,20.6751307 63.037725,20.945017 L70.7189068,24.9544489 L69.3202477,27.6340966 L64.2453045,24.985108 C64.4171682,26.9710398 64.4145773,29.1689943 64.2362364,31.5547898" id="Fill-64" fill="#0D1B49"></path>
                                <polygon id="Fill-66" fill="#0D1B49" points="42.3563545 44.5534023 42.0137068 41.5501068 46.9070705 40.9917659 47.2497182 43.9950614"></polygon>
                                <path d="M33.1091625,45.598575 C32.4955489,45.598575 31.9350489,45.2250523 31.7048898,44.643825 C31.4533557,44.0090523 31.6586852,43.2842455 32.2062307,42.8757455 L33.4846284,41.922075 C33.9609239,41.5666886 34.601742,41.5235068 35.1214352,41.8119614 L36.3292307,42.4819273 C36.9037648,42.800825 37.2066852,43.4541659 37.0782193,44.0986545 C36.9499693,44.7431432 36.4201284,45.2308818 35.7674352,45.3053705 L33.281242,45.5888591 C33.2235943,45.5953364 33.1661625,45.598575 33.1091625,45.598575" id="Fill-68" fill="#0D1B49"></path>
                                <path d="M47.2497398,43.9950614 L46.907092,40.9917659 L60.0116943,39.4968114 C60.3487284,37.9638568 60.9593193,34.8444023 61.2218648,31.3296182 L64.2361716,31.5548114 C63.8449443,36.7938455 62.7513648,41.0755386 62.7051602,41.255175 C62.5486261,41.8612318 62.0347625,42.3083795 61.4129443,42.3794136 L47.2497398,43.9950614 Z" id="Fill-70" fill="#0D1B49"></path>
                                <path d="M43.8299773,89.7338477 C43.5851364,89.7338477 43.3400795,89.6744727 43.1174773,89.5555068 L37.6394318,86.6271318 L39.0642159,83.9613023 L43.8241477,86.5057909 C55.7375795,79.9140864 62.7086364,69.961325 66.47625,62.7050523 C69.6725682,56.5488364 71.1647159,51.2504273 71.6982273,49.0537682 L69.0086477,47.6577 L70.4010455,44.9748136 L74.1222386,46.9063364 C74.7125341,47.2127114 75.0331591,47.8686432 74.91225,48.5224159 C74.86,48.8054727 73.5807386,55.5493932 69.2083636,64.0026659 C65.1684886,71.8129614 57.6095114,82.5863932 44.5411818,89.5561545 C44.3190114,89.6746886 44.0743864,89.7338477 43.8299773,89.7338477" id="Fill-72" fill="#0D1B49"></path>
                                <path d="M39.1746534,81.482925 L37.5289943,78.9472886 C51.7265284,69.7325045 58.398767,53.4685045 60.6081648,46.9035727 L63.4730625,47.8680386 C62.1523466,51.7919705 59.7581307,57.7776182 55.8534148,64.0085386 C51.1928011,71.4455273 45.5813239,77.3245159 39.1746534,81.482925" id="Fill-74" fill="#0D1B49"></path>
                                <path d="M37.6402955,86.6276284 L33.019625,84.1621625 C32.5182841,83.894867 32.2095341,83.3689125 32.2198977,82.8008557 C32.2304773,82.2330148 32.5584432,81.7189352 33.0690682,81.469992 C34.7687045,80.6419807 36.2880568,79.7232875 37.5502614,78.933708 L39.1533864,81.496333 C38.4842841,81.9149807 37.7450114,82.3686057 36.943125,82.8295716 L39.0633523,83.9607193 L37.6402955,86.6276284 Z" id="Fill-76" fill="#0D1B49"></path>
                                <path d="M63.4628284,47.8679307 L60.5979307,46.9034648 C61.4667489,44.3224875 61.846533,42.6878398 61.8502034,42.6716466 C61.9553511,42.2162943 62.2649648,41.834783 62.6892261,41.6385216 C63.1132716,41.4424761 63.6042489,41.4532716 64.0192261,41.668533 L70.3930784,44.9747489 L69.0011125,47.6578511 L64.2958057,45.2174307 C64.0891807,45.9288511 63.8143284,46.8235784 63.4628284,47.8679307" id="Fill-78" fill="#0D1B49"></path>
                                <path d="M36.2469045,49.2909659 L33.2256886,49.198125 L33.3176659,46.2054091 C33.3407682,45.4546932 33.9116318,44.8348182 34.6575977,44.7501818 L36.3833591,44.5541364 L36.7247114,47.5574318 L36.2987227,47.6057955 L36.2469045,49.2909659 Z" id="Fill-80" fill="#0D1B49"></path>
                            </g>
                        </g>
                    </g>
                </g>
            </g>
        </g>
    </g>
</svg>