<svg id="Calque_1" data-name="Calque 1" xmlns="http://www.w3.org/2000/svg" viewBox="0 0 185.29 184.34"><title>Plan de travail 37</title><circle cx="52.17" cy="48.35" r="10.77"/><path d="M161.69,184.34H23.61c-14.12,0-23.6-7.6-23.6-18.91V153.2Q0,86,0,18.7C0,9.7,6.66,2.59,17,.57a31.21,31.21,0,0,1,6-.55Q92.74,0,162.56,0c12.94,0,22.71,7.85,22.72,18.25q0,26.66,0,53.31v93.86C185.29,176.74,175.8,184.34,161.69,184.34ZM108.88,10l-86,0a21.45,21.45,0,0,0-4,.37C13.32,11.48,10,14.58,10,18.7Q10,86,10,153.2v12.23c0,6.57,7,8.91,13.6,8.91H161.69c6.57,0,13.6-2.34,13.6-8.92V71.57q0-26.65,0-53.31c0-4.71-5.47-8.25-12.72-8.25Z"/><path d="M166.56,40.75c0-.09,0-.18,0-.27V37.33s0-.09,0-.13,0-.21,0-.23h0c0-.67,0-1.42,0-2.27,0-8.79-8.15-15.41-18.93-15.42q-54.9,0-109.81,0a25.61,25.61,0,0,0-4.88.46c-8.63,1.69-14.2,7.69-14.2,15.3V91.43c0,9.53,7.89,15.94,19.63,15.94H146.94c11.74,0,19.63-6.41,19.63-15.94V41.57h0c0-.06,0-.3,0-.79ZM48.75,97.36,64.62,77.12l9.5,12.11-1,1.23c-1.93,2.32-3.85,4.61-5.78,6.9Zm59.44-33,27.62,33h-55Zm48.37,27.09c0,4.33-4.55,5.52-7.59,5.83q-15.51-18.59-31-37.19l-6.91-8.29-.85-1-.49-.58a2,2,0,0,0-1.52-.7h0a2,2,0,0,0-1.53.72l-25.87,31L66.23,62.74A2,2,0,0,0,64.7,62a2.14,2.14,0,0,0-1.56.7l-.39.45c-.29.33-.55.63-.79.94L56.49,71C49.74,79.6,42.78,88.45,36,97.22c-3-.37-7.22-1.63-7.22-5.79V35.06c0-3.87,4.28-5.13,6.12-5.49a15.76,15.76,0,0,1,3-.27l68.66,0h41.13c5,0,8.93,2.38,8.94,5.42V91.42Z"/><rect x="39.85" y="120.2" width="106.07" height="10"/><rect x="39.85" y="152.51" width="106.07" height="10"/><rect x="29.85" y="136.71" width="125.29" height="10"/></svg>