<svg id="Calque_1" data-name="Calque 1" xmlns="http://www.w3.org/2000/svg" viewBox="0 0 185.29 184.34"><defs><style>.cls-1{fill:#fff;}</style></defs><title>WEBZINE</title><path d="M185.28,20.32c0-10.4-9.77-18.24-22.72-18.25q-69.83,0-139.64,0a31.2,31.2,0,0,0-6,.55c-10.3,2-17,9.13-17,18.12Q0,94.13,0,167.5c0,11.31,9.49,18.91,23.6,18.91H161.69c14.12,0,23.6-7.6,23.6-18.92V73.64Q185.29,47,185.28,20.32Zm-10,147.17c0,6.57-7,8.92-13.6,8.92H23.6c-6.58,0-13.6-2.34-13.6-8.91q0-62.56,0-125.13H175.29q0,15.63,0,31.26Z"/><circle class="cls-1" cx="165.48" cy="22.04" r="5.62"/><path d="M26.93,70.37V58.86H156.09V70.37Z"/><path d="M26.93,151.37V79.2H99.49v72.17Z"/><path d="M108.84,151.37V79.2h47.25v72.17Z"/></svg>